<svg width="2049" height="6102" viewBox="0 0 2049 6102" fill="none" xmlns="http://www.w3.org/2000/svg">
<g clip-path="url(#clip0_633_8768)">
<rect width="2049" height="6102" fill="white"/>
<g clip-path="url(#clip1_633_8768)">
<path d="M2048.64 3463.37H0.644531V2101.37H2048.64V3463.37Z" fill="#00684A"/>
<path d="M475.65 4320H2046.93C2394.65 4320 2675 4040.35 2675 3693.5V2126.16C2675 1952.74 2533.74 1814 2362.05 1814H1733.98C1560.12 1814 1421.03 1954.91 1421.03 2126.16V2128.33C1421.03 2301.76 1279.77 2440.5 1108.08 2440.5C934.215 2440.5 795.121 2581.41 795.121 2752.66C795.121 2926.09 653.859 3064.83 482.171 3064.83C308.309 3064.83 169.22 3205.74 169.22 3377V4003.5C162.7 4179.09 301.789 4320 475.65 4320Z" fill="#001E2B"/>
</g>
<g clip-path="url(#clip2_633_8768)">
<path d="M1881 3382.82H-167V4744.82H1881V3382.82Z" fill="#00684A"/>
<path d="M475.841 2521H2047.12C2394.84 2521 2675.19 2800.65 2675.19 3147.5V4714.84C2675.19 4888.26 2533.93 5027 2362.24 5027H1734.17C1560.31 5027 1421.22 4886.09 1421.22 4714.84V4712.67C1421.22 4539.24 1279.96 4400.5 1108.27 4400.5C934.406 4400.5 795.312 4259.59 795.312 4088.33C795.312 3914.91 654.05 3776.17 482.362 3776.17C308.5 3776.17 169.411 3635.26 169.411 3464V2837.5C162.891 2661.91 301.98 2521 475.841 2521Z" fill="#001E2B"/>
</g>
<g clip-path="url(#clip3_633_8768)">
<path d="M1880 6101.18H-168V4739.18H1880V6101.18Z" fill="#00684A"/>
<path d="M474.841 6963H2046.12C2393.84 6963 2674.19 6683.35 2674.19 6336.5V4769.16C2674.19 4595.74 2532.93 4457 2361.24 4457H1733.17C1559.31 4457 1420.22 4597.91 1420.22 4769.16V4771.33C1420.22 4944.76 1278.96 5083.5 1107.27 5083.5C933.406 5083.5 794.312 5224.41 794.312 5395.66C794.312 5569.09 653.05 5707.83 481.362 5707.83C307.5 5707.83 168.411 5848.74 168.411 6020V6646.5C161.891 6822.09 300.98 6963 474.841 6963Z" fill="#001E2B"/>
</g>
<g clip-path="url(#clip4_633_8768)">
<path d="M2048.64 739.63H0.644531V2101.63H2048.64V739.63Z" fill="#00684A"/>
<path d="M347.888 -122H2130.47C2524.95 -122 2843 157.648 2843 504.501V2071.84C2843 2245.26 2682.74 2384 2487.96 2384H1775.43C1578.19 2384 1420.4 2243.09 1420.4 2071.84V2069.67C1420.4 1896.24 1260.14 1757.5 1065.36 1757.5C868.121 1757.5 710.322 1616.59 710.322 1445.34C710.322 1271.91 550.063 1133.17 355.286 1133.17C158.043 1133.17 0.249837 992.261 0.249837 821.003V194.502C-7.14697 18.9081 150.647 -122 347.888 -122Z" fill="#001E2B"/>
</g>
<rect width="2049" height="740" fill="#001E2B"/>
</g>
<defs>
<clipPath id="clip0_633_8768">
<rect width="2049" height="6102" fill="white"/>
</clipPath>
<clipPath id="clip1_633_8768">
<rect width="2049" height="1363" fill="white" transform="matrix(1 0 0 -1 0 3464)"/>
</clipPath>
<clipPath id="clip2_633_8768">
<rect width="2049" height="1363" fill="white" transform="translate(0 3377)"/>
</clipPath>
<clipPath id="clip3_633_8768">
<rect width="2049" height="1363" fill="white" transform="matrix(1 0 0 -1 0 6102)"/>
</clipPath>
<clipPath id="clip4_633_8768">
<rect width="2049" height="1363" fill="white" transform="translate(0 739)"/>
</clipPath>
</defs>
</svg>
